<svg xmlns="http://www.w3.org/2000/svg" xmlns:xlink="http://www.w3.org/1999/xlink" width="1179.16" height="1108.96" version="1.0">
  <defs>
    <linearGradient id="a">
      <stop offset="0" stop-color="#ff902c"/>
      <stop offset="1" stop-color="#ffbe57"/>
    </linearGradient>
    <linearGradient xlink:href="#a" id="b" x1="157.28001" x2="469.95703" y1="643.14075" y2="643.14075" gradientTransform="translate(-19.47011 -205.5938) scale(1.91582)" gradientUnits="userSpaceOnUse"/>
    <linearGradient xlink:href="#a" id="c" x1="146.65625" x2="479.0625" y1="432.35938" y2="432.35938" gradientTransform="translate(-19.47011 -205.5938) scale(1.91582)" gradientUnits="userSpaceOnUse"/>
    <linearGradient xlink:href="#a" id="d" x1="160.09082" x2="210.48468" y1="875.10272" y2="859.42371" gradientTransform="translate(-19.47011 -205.5938) scale(1.91582)" gradientUnits="userSpaceOnUse"/>
    <linearGradient xlink:href="#a" id="e" x1="411.69394" x2="511.08469" y1="886.43359" y2="859.42371" gradientTransform="translate(-19.47011 -205.5938) scale(1.91582)" gradientUnits="userSpaceOnUse"/>
    <linearGradient xlink:href="#a" id="f" x1="507.71875" x2="607.1875" y1="436.34375" y2="436.34375" gradientTransform="translate(-19.47011 -205.5938) scale(1.91582)" gradientUnits="userSpaceOnUse"/>
    <linearGradient xlink:href="#a" id="g" x1="43.770226" x2="140.50378" y1="355.86588" y2="355.86588" gradientTransform="translate(-19.47011 -205.5938) scale(1.91582)" gradientUnits="userSpaceOnUse"/>
    <linearGradient xlink:href="#a" id="h" x1="23.441912" x2="120.17547" y1="707.16461" y2="707.16461" gradientTransform="translate(-19.47011 -205.5938) scale(1.91582)" gradientUnits="userSpaceOnUse"/>
    <linearGradient xlink:href="#a" id="i" x1="538.30878" x2="636.84161" y1="683.35327" y2="683.35327" gradientTransform="translate(-19.47011 -205.5938) scale(1.91582)" gradientUnits="userSpaceOnUse"/>
    <linearGradient xlink:href="#a" id="j" x1="235.78125" x2="386.8125" y1="520.98438" y2="520.98438" gradientTransform="translate(-19.47011 -205.5938) scale(1.91582)" gradientUnits="userSpaceOnUse"/>
  </defs>
  <path fill="#fff" d="M367.27156 533.92138h428.04417l15.0191 78.85026s-116.39799 54.44422-197.12562 54.44422c-80.72762 0-328.54267 45.05726-245.93765-133.29448z" color="#000" overflow="visible" style="marker:none" transform="translate(-23.442586 -385.695425)"/>
  <path d="M693.39936946 205.97896946a31.03464389 29.20907626 0 1 1-62.0692801 0 31.03464389 29.20907626 0 1 1 62.0692801 0z"/>
  <path fill="none" stroke="#000" stroke-width="1.91582" d="M873.94497817 237.03975141a317.47906334 183.37153675 0 1 1-634.95812668 0 317.47906334 183.37153675 0 1 1 634.95812668 0z"/>
  <path fill="#b9681f" stroke="#000" stroke-width="1.91582155" d="M293.90356 1097.5851s-36.948 78.0012-32.84265 208.0034c0 0-150.80253-138.2128-82.38033-362.63762 28.97684-95.04404 98.00854-159.16338 167.97154-201.50485l43.04253 15.39646-95.79109 340.74261zm576.15026 0s36.948 78.0012 32.84266 208.0034c0 0 150.80252-138.2128 82.38034-362.63762-28.97686-95.04404-98.00856-159.16338-167.97154-201.50485l-43.04256 15.39646 95.7911 340.74261z" color="#000" overflow="visible" style="marker:none" transform="translate(-23.442586 -385.695425)"/>
  <path fill="url(#b)" stroke="#000" stroke-width="1.91582155" d="M788.05832 758.05449s101.63581 125.51075 91.10176 268.71321c-8.72075 118.552-25.55794 132.6578-25.55794 132.6578s-47.46472 136.8273-272.23513 135.6102c-223.55332-1.217-272.23509-135.6102-272.23509-135.6102s-16.83719-14.1058-25.55794-132.6578c-10.53406-143.20246 91.10175-268.71321 91.10175-268.71321h413.38259z" color="#000" overflow="visible" style="marker:none" transform="translate(-23.442586 -385.695425)"/>
  <path d="M471.89725946 210.84716946a31.03464389 29.20907626 0 1 1-62.0692801 0 31.03464389 29.20907626 0 1 1 62.0692801 0z"/>
  <path fill="url(#c)" d="M579.8827 439.3795c-175.2484 0-317.42769 82.15897-317.42769 183.38005 0 76.893 82.04803 142.75119 198.31269 169.96688 36.78481 8.61074 76.99476-3.5432 119.115-3.54318 36.33518 0 71.2514 13.3672 103.77504 6.86996 124.34122-24.83961 213.71255-93.05931 213.71252-173.29366 0-101.22108-142.23916-183.38004-317.48756-183.38005zM386.92354 557.50187c0 .00002 166.73635 37.89735 166.73635 37.89735.00002 32.30274-42.39911 58.5523-94.65356 58.5523-52.25443-.00003-94.65356-26.24956-94.65356-58.5523 0-14.46497 8.48694-27.68066 22.57077-37.89735zm379.03332-15.84647c14.08384 10.2167 23.22934 24.09092 23.22934 38.55592 0 32.30273-38.74349 52.38575-76.39339 52.38573-52.25444 0-86.8026-13.99598-94.71343-45.08167 0 0 147.87747-45.85998 147.87748-45.85998z" transform="translate(-23.442586 -385.695425)"/>
  <path d="M564.71126 569.15894c144.8283 0 276.26912-98.58062 276.26912-98.58062l-29.20906-41.37952s-108.31698 88.84425-247.06006 88.84425c-137.52602 0-237.32367-82.75903-237.32367-82.75903l-29.20908 41.37952s122.92151 92.4954 266.53275 92.4954z" color="#000" overflow="visible" style="marker:none" transform="translate(-23.442586 -385.695425)"/>
  <path fill="none" stroke="#633f12" stroke-width="45.97971725" d="m400.06286 925.43737-145.8684-191.47916-73.14932-202.2364m231.49613 554.21379L158.67005 969.75727l-38.72613 102.40903m627.36316 16.3511L1003.76 971.47842l73.1494 73.14938m-329.60232-90.36098 254.73182-117.03895 30.9809-142.85635M674.15772 1178.0177l110.15431 250.4291M474.50307 1159.085l-108.43313 283.131" color="#000" overflow="visible" style="marker:none" transform="translate(-23.442586 -385.695425)"/>
  <path fill="url(#d)" stroke="#000" stroke-width="1.91582155" d="M183.05961 1491.697H434.8533s13.68443-108.1071-97.15954-101.2648c-110.84395 6.8421-132.73905 43.7901-132.73905 43.7901s-21.8951 19.1582-21.8951 57.4747z" color="#000" overflow="visible" style="marker:none" transform="translate(-23.442586 -385.695425)"/>
  <path fill="url(#e)" stroke="#000" stroke-width="1.91582155" d="M958.71903 1491.697H706.92535s-13.68443-108.1071 97.15953-101.2648c110.84395 6.8421 132.73905 43.7901 132.73905 43.7901s21.8951 19.1582 21.8951 57.4747z" color="#000" overflow="visible" style="marker:none" transform="translate(-23.442586 -385.695425)"/>
  <path fill="url(#f)" stroke="#000" stroke-width="1.91582155" d="M982.50458 555.28671c-17.47597 15.90805-28.31824 38.05506-28.31824 62.56353 0 48.37023 42.22917 87.58898 94.29436 87.58898 52.0652 0 94.3541-39.21875 94.3542-87.58898 0-15.16252-4.1901-29.46554-11.4949-41.90859-13.1756 28.45045-40.0496 47.95541-71.065 47.95541-38.0698 0-69.86902-29.36334-77.77042-68.61035z" transform="translate(-23.442586 -385.695425)"/>
  <path fill="url(#g)" stroke="#000" stroke-width="1.91582155" d="M66.377745 466.38359c-3.548944 23.36409 1.984373 47.39381 17.425306 66.42648 30.474419 37.56313 87.977319 41.41405 128.409839 8.61171 40.43253-32.80231 48.56437-89.9017 18.09-127.46488-9.55277-11.77483-21.81791-20.24237-35.33012-25.30309 7.69262 30.39487-.88847 62.47322-24.97427 82.01368-29.56402 23.98485-72.758142 21.21628-103.620755-4.2839z" transform="translate(-23.442586 -385.695425)"/>
  <path fill="url(#h)" stroke="#000" stroke-width="1.91582155" d="M208.77274 1159.0055c3.54893-23.3641-1.98438-47.3938-17.4253-66.4265-30.47442-37.5631-87.97734-41.414-128.409849-8.6117-40.432553 32.8023-48.564373 89.9017-18.090012 127.4649 9.552785 11.7748 21.817933 20.2424 35.330145 25.3031-7.692618-30.3949.888463-62.4732 24.974246-82.0137 29.56404-23.9849 72.75816-21.2163 103.62077 4.2839z" transform="translate(-23.442586 -385.695425)"/>
  <path fill="url(#i)" stroke="#000" stroke-width="1.91582155" d="M1190.8608 1146.1981c10.2393-21.2987 11.99-45.895 2.8038-68.6168-18.1301-44.8439-71.9806-65.3752-120.2501-45.8602-48.2696 19.515-72.7756 71.7254-54.6456 116.5693 5.6832 14.0572 14.9289 25.747 26.3651 34.5449 1.5513-31.3148 19.1553-59.4708 47.9096-71.0959 35.2944-14.2693 75.7813 1.0344 97.8172 34.4587z" transform="translate(-23.442586 -385.695425)"/>
  <path fill="none" stroke="#000" stroke-width="1.91582155" d="M530.217304 209.703795c.00002 32.30274-42.39911 58.5523-94.65356 58.5523-52.25443-.00003-94.65356-26.24956-94.65356-58.5523 0-14.46497 8.48694-27.68066 22.57077-37.89735m379.03332-15.84647c14.08384 10.2167 23.22934 24.09092 23.22934 38.55592 0 32.30273-38.74349 52.38575-76.39339 52.38573-52.25444 0-86.8026-13.99598-94.71343-45.08167m-38.19668-148.13588c-175.2484 0-317.42769 82.15897-317.42769 183.38005 0 76.893 82.04803 142.75119 198.31269 169.96688 36.78481 8.61074 76.99476-3.5432 119.115-3.54318 36.33518 0 71.2514 13.3672 103.77504 6.86996 124.34122-24.83961 213.71255-93.05931 213.71252-173.29366 0-101.22108-142.23916-183.38004-317.48756-183.38005z"/>
  <path fill="url(#j)" stroke="#000" stroke-width="1.91582155" d="M576.88923 721.06514c-79.33174 0-143.68662 39.67757-143.68662 88.60674 0 20.44257 11.2422 39.30109 30.11432 54.30157 26.74397-36.98162 68.85069-60.8872 116.20655-60.8872 46.19778-.00003 87.35314 22.748 114.171 58.19308 16.92771-14.54115 26.94126-32.35323 26.94123-51.60745 0-48.92917-64.41475-88.60674-143.74648-88.60674z" transform="translate(-23.442586 -385.695425)"/>
</svg>
