<svg xmlns="http://www.w3.org/2000/svg" xmlns:xlink="http://www.w3.org/1999/xlink" width="48" height="48" version="1.0">
  <defs>
    <radialGradient xlink:href="#a" id="b" cx="17.3125" cy="25.53125" r="9.6875" fx="17.3125" fy="25.53125" gradientTransform="matrix(1 0 0 .35161 0 16.55413)" gradientUnits="userSpaceOnUse"/>
    <linearGradient id="a">
      <stop offset="0"/>
      <stop offset="1" stop-opacity="0"/>
    </linearGradient>
  </defs>
  <path fill="url(#b)" d="M27 25.53125c0 1.88122-4.337241 3.40625-9.6875 3.40625S7.625 27.41247 7.625 25.53125s4.337241-3.40625 9.6875-3.40625S27 23.65003 27 25.53125z" opacity=".40909089" transform="translate(-13.50372 -14.35012) scale(2.18291)"/>
  <path fill="#edd400" stroke="#c4a000" stroke-linecap="round" stroke-linejoin="round" d="M46.138718 23.42804c0 11.715729-9.85363 21.213204-22.0087 21.213204-12.155069 0-22.0086993-9.497475-22.0086992-21.213204-1e-7-11.715729 9.8536302-21.2132038 22.0086992-21.2132038 12.15507 0 22.0087 9.4974748 22.0087 21.2132038h0z" transform="matrix(.94463 0 0 .98005 1.504174 -1.556912)"/>
  <path fill="none" stroke="#fce94f" stroke-linecap="round" stroke-linejoin="round" d="M46.138718 23.42804c0 11.715729-9.85363 21.213204-22.0087 21.213204-12.155069 0-22.0086993-9.497475-22.0086992-21.213204-1e-7-11.715729 9.8536302-21.2132038 22.0086992-21.2132038 12.15507 0 22.0087 9.4974748 22.0087 21.2132038h0z" transform="matrix(.91409 0 0 .94836 2.380576 -.905815)"/>
  <path fill="#fff" d="M24.671131 9.5255441c-.904701.0000209-1.834678.1159421-2.803114.3234076-.96784.2073803-2.03332.5057003-3.203543.9408143-.008866-.00113-.01783-.00113-.026698 0-.010309.008125-.019324.018054-.02671.029405-.010293.008116-.019315.01805-.026683.0294-.001027.009771-.001027.019627 0 .029397-.001027.009775-.001027.019634 0 .029405v4.851091c-.001027.00978-.001027.019644 0 .029405-.001027.009762-.001027.019645 0 .029402.007368.011346.01639.021279.026683.029407.007386.011336.016401.02127.02671.029401.008868.001135.017832.001135.026698 0 .008868.001135.017818.001135.026685 0 .008872.001135.017835.001135.026707 0 .008866.001135.017822.001135.026685 0 .975977-.676493 1.907913-1.192162 2.803126-1.528832.895399-.346935 1.745391-.529201 2.509439-.529217.8109.000016 1.405229.198085 1.842042.588013.434593.378292.667401.924868.667408 1.617029-.000006.452219-.12317.89511-.373749 1.352426-.241749.458194-.632385.969514-1.174636 1.499432l-.934367.882021c-1.026385 1.016537-1.69937 1.873188-2.028915 2.557852-.327284.669335-.480539 1.4294-.480537 2.293242v.764408c-.001029.009773-.001029.01964 0 .029409-.001029.009766-.001029.019628 0 .0294.007374.011342.016386.021277.026695.029403.007366.011343.016396.021278.026704.029396.008863.001139.017824.001139.026691 0 .00887.001139.017831.001139.026705 0h5.205772c.008864.001139.017818.001139.026689 0 .008875.001139.017826.001139.026697 0 .010298-.008118.019323-.018053.026698-.029396.010309-.008126.019321-.018061.026697-.029403.00104-.009772.00104-.019634 0-.0294.00104-.009769.00104-.019636 0-.029409v-.705605c-.000008-.44049.12675-.84002.320353-1.20543.189913-.368125.604899-.894115 1.254733-1.528825l.907669-.88202c.911168-.924172 1.563902-1.773117 1.948826-2.587249.3838-.822322.587301-1.762549.587323-2.793051-.000022-2.000434-.635398-3.513049-1.895441-4.557097-1.260224-1.054675-3.080748-1.587611-5.446042-1.5876319zM21.627761 27.5481c-.010308.008126-.019338.018059-.026704.029395-.010309.008126-.019321.018056-.026695.029409-.001029.00977-.001029.019629 0 .029402-.001029.00977-.001029.019629 0 .029404v5.497898c-.001029.009771-.001029.019644 0 .029405-.001029.009752-.001029.01964 0 .029404.007374.011345.016386.021276.026695.029398.007366.011351.016396.021285.026704.029399.008863.001144.017824.001144.026691 0 .00887.001144.017831.001144.026705 0h5.205772c.008864.001144.017818.001144.026689 0 .008875.001144.017826.001144.026697 0 .010298-.008114.019323-.018048.026698-.029399.010309-.008122.019321-.018053.026697-.029398.00104-.009764.00104-.019652 0-.029404.00104-.009761.00104-.019634 0-.029405V27.66571c.00104-.009775.00104-.019634 0-.029404.00104-.009773.00104-.019632 0-.029402-.007376-.011353-.016388-.021283-.026697-.029409-.007375-.011336-.0164-.021269-.026698-.029395-.008871-.001131-.017822-.001131-.026697 0-.008871-.001131-.017825-.001131-.026689 0h-5.205772c-.008874-.001131-.017835-.001131-.026705 0-.008867-.001131-.017828-.001131-.026691 0z"/>
  <path fill="#fffeff" fill-opacity=".21390375" d="M43.676426 20.47678c0 10.830616-6.052169-4.306199-18.674738.386388-12.722516 4.729744-20.5666345 10.444228-20.5666345-.386388C4.4350535 9.6461627 13.22512.85609769 24.05574.85609769c10.830619 0 19.620686 8.79006501 19.620686 19.62068231z"/>
</svg>
